<svg xmlns="http://www.w3.org/2000/svg" xmlns:xlink="http://www.w3.org/1999/xlink" width="1592" height="35.999" viewBox="0 0 1592 35.999">
  <defs>
    <linearGradient id="linear-gradient" x1="0.5" x2="0.5" y2="1" gradientUnits="objectBoundingBox">
      <stop offset="0" stop-color="#fff"/>
      <stop offset="1" stop-color="#108ee9"/>
    </linearGradient>
  </defs>
  <g id="装饰_站点任务_" data-name="装饰【站点任务】" transform="translate(-26 -23.667)">
    <g id="数据可视化情况_拷贝_3" data-name="数据可视化情况 拷贝 3" transform="translate(69.521 22.832)">
      <path id="Gradient_Overlay" data-name="Gradient Overlay" d="M-.07,3.111h3.1q-.6-1.38-1.081-2.285L4.359-.018Q4.9.9,5.783,2.619L4.4,3.111H8.174v2.3H-.07Zm17.279-.088v2.3H13.166V7.963h3.322v9.422H14.133V16.4h-3.8v1.055H7.98V7.963h2.654V.053h2.531V3.023Zm-3.076,7.295h-3.8v3.727h3.8Zm-9-4.535,2.566.51L6.064,13.157l1.494-.237q-.105,1.652-.123,2.531-3.656.6-7.277,1.266l-.387-2.672,4.061-.554Q4.518,9.984,5.133,5.783Zm-2.6.316Q3.146,8.6,3.85,12.41l-2.32.457Q1.02,9.738.281,6.539Zm17.279-.9h5.2V.105h2.5V1.582h7.365V3.8H27.51V5.2h5.941v6.68H19.811ZM30.885,7.348H22.377V9.738h8.508ZM33.1,12.27q1.107,2.092,2.039,4.219l-2.2.861q-1.055-2.391-1.951-4.2Zm-13.2.141,2.162.914q-.844,1.846-2.18,4.271l-2.057-1.09Q19.037,14.361,19.9,12.41Zm9.158.123q.773,1.705,1.547,3.691l-2.3.7q-.65-1.916-1.406-3.709Zm-4.148.176q.826,2.18,1.336,3.779l-2.285.58q-.721-2.338-1.248-3.762ZM39.393.246l2.461.721a34.481,34.481,0,0,1-1.406,3.674V17.332H38.057v-8.3q-.712,1.1-1.512,2.145-.246-1.072-.809-3.164A27.315,27.315,0,0,0,39.393.246ZM41.783,14.4H46.02V10.037H41.432V7.787H46.02V3.92l-3.375.193q-.193-1-.545-2.373,5.889-.264,9.949-.721.053.316.527,2.373-1.811.185-3.92.352V7.787h4.553v2.25H48.656V14.4h3.867v2.25H41.783ZM69.732,1.564v1.9a17.693,17.693,0,0,1-4.061,2.83,28.265,28.265,0,0,0,5.537.615q-.545,1.3-.949,2.338a30.578,30.578,0,0,1-7.726-1.617,41.31,41.31,0,0,1-7.813,1.846q-.369-.932-.949-2.2A39.788,39.788,0,0,0,59.713,6.3a12.52,12.52,0,0,1-2.188-1.652,21.286,21.286,0,0,1-2.188,1.556q-.6-.809-1.424-1.775A15.237,15.237,0,0,0,58.992.07h2.654q-.5.773-1.072,1.494ZM62.657,5.37a16.519,16.519,0,0,0,3.56-1.854H59.37A13.953,13.953,0,0,0,62.657,5.37ZM60.135,8.578h2.514q-.088.844-.237,1.652h7.427l-.3,4.008a3.088,3.088,0,0,1-.589,1.652,2.927,2.927,0,0,1-1.371.962,12.011,12.011,0,0,1-3.41.312q-.879,0-1.854-.044a17.372,17.372,0,0,0-.562-2.373q1.942.158,3.393.158a2.5,2.5,0,0,0,1.178-.229.982.982,0,0,0,.523-.642,10.984,10.984,0,0,0,.163-1.679H61.875q-1.345,3.709-6.469,5.115-.686-.932-1.652-2.021,4.043-.967,5.361-3.094H54.369V10.23h5.493Q60.029,9.457,60.135,8.578ZM89.174,4.113H76.887v-2H81.6q-.316-.765-.721-1.617L83.5.018q.431.809.967,2.092h4.711ZM74.795.141l2.32.615Q76.456,2.865,75.762,4.7V17.42H73.529V9.659q-.624,1.143-1.266,2.1-.193-1.406-.562-3.3A42.187,42.187,0,0,0,74.795.141Zm13.359,6.82H77.607V5.08H88.154Zm0,2.777H77.607V7.857H88.154ZM77.572,17.42V10.67H88.154v6.75H85.746v-.914H79.98v.914Zm8.174-4.676H79.98v1.688h5.766Zm5.73-11.268h5.133Q96.82.782,97,0L100,.316l-.536,1.16h6.091v9.686H99.475L101,13.043l-1.951,1.371q-.633-.984-1.863-2.549l1.081-.7H91.477Zm11.777,1.811H93.779v.984h9.475ZM93.779,6.8h9.475V5.818H93.779Zm9.475,2.549v-1H93.779v1Zm1.9,1.969q1.441,2.426,2.092,3.674L105.152,16.1a31.442,31.442,0,0,0-1.986-3.832ZM91.3,11.689l2.2.773q-1.143,2.865-1.705,4.1l-2.057-.949A23.77,23.77,0,0,0,91.3,11.689Zm10.248,1.143q1.459.861,2.3,1.248a4.9,4.9,0,0,1-1.4,2.549,3.368,3.368,0,0,1-1.89.492H96.609q-2.637,0-2.637-2.285V11.9H96.4v2.355q0,.879,1.143.879h2.092a1.847,1.847,0,0,0,1.327-.374A3.936,3.936,0,0,0,101.549,12.832Z" transform="translate(0.51 2.944)" fill="url(#linear-gradient)"/>
    </g>
    <path id="模块科技修饰icon" d="M3208,185H3184.24v-1.7H3208Zm-18.923-2.927h-3.612a.136.136,0,0,1,0-.09v-3.3l1.766-1.092,1.916.922v3.407a.273.273,0,0,1-.07.14Zm17.458,0h-3.682v-7.467l1.425,1,2.257-.1Zm-5.879,0h-3.673v-7.3l2.077-3.087,1.6,1.2Zm-5.639,0h-3.863V179.67l2.007,1,1.886-2.6v4.009Zm-2.007-3.007-5.87-2.967-3.14,1.924v-1.072l3.08-1.934,5.589,2.816,6.1-9.221,6.221,4.791,3.01-.14v.852l-3.351.17-5.639-4.279-6.02,9.02Zm-.662-2.756-1.194-.551v-3.819c0-.421.452-.641.9-.641h2.107c.411,0,.853.22.853.641v.561l-2.689,3.839Zm-6.883-1.7v-5.382c0-.451.371-.611.712-.611h2.157c.4,0,.8.19.8.611v5.382l-2.057-1Zm19.645-2.526-2.247-1.734v-3.137a.822.822,0,0,1,.8-.8h2.157a.772.772,0,0,1,.712.8v4.8Zm-8.127-2.957v-6.535c0-.4.411-.591.833-.591h2.147c.462,0,.693.2.693.591v6.014l-2.208-1.684-1.465,2.165Zm0,0" transform="translate(-3158 -138.334)" fill="#fff"/>
    <path id="形状_7_拷贝_6" data-name="形状 7 拷贝 6" d="M3184,197h190.195l17.107-18H4776" transform="translate(-3158 -138.334)" fill="none" stroke="#fff" stroke-width="1" opacity="0.4"/>
    <g id="矩形_13_拷贝_6" data-name="矩形 13 拷贝 6" transform="translate(26 57)" fill="none" stroke="#fff" stroke-width="1">
      <rect width="7" height="2" stroke="none"/>
      <rect x="0.5" y="0.5" width="6" height="1" fill="none"/>
    </g>
    <path id="矩形_19_拷贝_5" data-name="矩形 19 拷贝 5" d="M3393,183h9l-14,15h-9Z" transform="translate(-3158 -138.334)" fill="#108ee9"/>
    <path id="矩形_19_拷贝_5-2" data-name="矩形 19 拷贝 5" d="M3407,183h9l-14,15h-9Z" transform="translate(-3158 -138.334)" fill="#108ee9"/>
    <path id="矩形_19_拷贝_5-3" data-name="矩形 19 拷贝 5" d="M3421,183h9l-14,15h-9Z" transform="translate(-3158 -138.334)" fill="#108ee9"/>
  </g>
</svg>
