<svg xmlns="http://www.w3.org/2000/svg" xmlns:xlink="http://www.w3.org/1999/xlink" width="1592" height="35.999" viewBox="0 0 1592 35.999">
  <defs>
    <linearGradient id="linear-gradient" x1="0.5" x2="0.5" y2="1" gradientUnits="objectBoundingBox">
      <stop offset="0" stop-color="#fff"/>
      <stop offset="1" stop-color="#108ee9"/>
    </linearGradient>
  </defs>
  <g id="装饰_故障点位_" data-name="装饰【故障点位】" transform="translate(-26 -23.667)">
    <g id="数据可视化情况_拷贝_3" data-name="数据可视化情况 拷贝 3" transform="translate(69.521 22.832)">
      <path id="Gradient_Overlay" data-name="Gradient Overlay" d="M.018,3.27H2.936V.07H5.361v3.2H8.209V5.616A21.311,21.311,0,0,0,10.16,0l2.461.633q-.3,1.125-.642,2.145h5.212V5.115H16.137a17.437,17.437,0,0,1-2.452,7.6,9.577,9.577,0,0,0,3.577,2.294A27.815,27.815,0,0,0,15.7,17.35a13.754,13.754,0,0,1-3.5-2.76,13.567,13.567,0,0,1-3.99,2.883q-.51-.958-1.028-1.758H2.619v1.371H.422V8.332H2.936V5.643H.018ZM12.2,10.67A15.52,15.52,0,0,0,13.86,5.115H11.048q-.105.264-.229.51A13.179,13.179,0,0,0,12.2,10.67ZM9.185,8.358q-.281.378-.571.729A20.28,20.28,0,0,0,7.154,7.26,12.774,12.774,0,0,0,8.191,5.643H5.361V8.332H7.875v6.311a13.3,13.3,0,0,0,2.856-2.074A13.523,13.523,0,0,1,9.185,8.358ZM5.678,13.605V10.441H2.619v3.164Zm29-10.617H31.975L33.68,3.6l-.817.967h2.171V6.258H23.678V4.57H26a10.36,10.36,0,0,0-.773-1.037l1.468-.545H24.328V1.3h3.656q-.2-.475-.422-.9L30.111,0q.237.527.519,1.3h4.052ZM28.617,4.342l-.642.229h2.312a17.024,17.024,0,0,0,1.046-1.582H27.51Q27.967,3.533,28.617,4.342ZM18.457.844h5.467V2.936L22.658,7.154a9.219,9.219,0,0,1,1.248,4.166,4.216,4.216,0,0,1-.308,1.749,1.681,1.681,0,0,1-.857.9,5.389,5.389,0,0,1-1.982.2q-.123-.905-.281-1.872V17.4H18.457Zm2.232,6.4,1.125-4.324H20.479V12q.439.044.756.044.7,0,.7-.914A6.36,6.36,0,0,0,20.689,7.242Zm3.656-.3h9.738v5.941H30.375v.756h4.693V15.5H30.375v1.934h-2.32V15.5H23.291V13.641h4.764v-.756H24.346Zm7.629,1.582h-5.52v.7h5.52Zm0,2.777v-.7h-5.52v.7Zm5.836-6.1h5.2V.105h2.5V1.582h7.365V3.8H45.51V5.2h5.941v6.68H37.811ZM48.885,7.348H40.377V9.738h8.508ZM51.1,12.27q1.107,2.092,2.039,4.219l-2.2.861q-1.055-2.391-1.951-4.2Zm-13.2.141,2.162.914q-.844,1.846-2.18,4.271l-2.057-1.09Q37.037,14.361,37.9,12.41Zm9.158.123q.773,1.705,1.547,3.691l-2.3.7q-.65-1.916-1.406-3.709Zm-4.148.176q.826,2.18,1.336,3.779l-2.285.58q-.721-2.338-1.248-3.762ZM59.326,2.971h4.641Q63.571,1.942,63,.7L65.531.018q.65,1.318,1.2,2.584l-1.389.369h5.326V5.238H59.326Zm-2-2.812,2.25.686q-.686,1.872-1.389,3.551v13.1H55.828V9.29q-.659,1.187-1.336,2.224-.264-1.266-.773-3.006A43.544,43.544,0,0,0,57.322.158ZM58.957,14.4h5.915a71.3,71.3,0,0,0,2.47-8.525l2.76.773Q69.68,7.787,67.377,14.4h3.885v2.268h-12.3Zm3.182-8.42q.668,1.775,2.355,6.732l-2.408.773Q60.855,9.246,59.924,6.7ZM89.174,4.113H76.887v-2H81.6q-.316-.765-.721-1.617L83.5.018q.431.809.967,2.092h4.711ZM74.795.141l2.32.615Q76.456,2.865,75.762,4.7V17.42H73.529V9.659q-.624,1.143-1.266,2.1-.193-1.406-.562-3.3A42.187,42.187,0,0,0,74.795.141Zm13.359,6.82H77.607V5.08H88.154Zm0,2.777H77.607V7.857H88.154ZM77.572,17.42V10.67H88.154v6.75H85.746v-.914H79.98v.914Zm8.174-4.676H79.98v1.688h5.766Zm5.73-11.268h5.133Q96.82.782,97,0L100,.316l-.536,1.16h6.091v9.686H99.475L101,13.043l-1.951,1.371q-.633-.984-1.863-2.549l1.081-.7H91.477Zm11.777,1.811H93.779v.984h9.475ZM93.779,6.8h9.475V5.818H93.779Zm9.475,2.549v-1H93.779v1Zm1.9,1.969q1.441,2.426,2.092,3.674L105.152,16.1a31.442,31.442,0,0,0-1.986-3.832ZM91.3,11.689l2.2.773q-1.143,2.865-1.705,4.1l-2.057-.949A23.77,23.77,0,0,0,91.3,11.689Zm10.248,1.143q1.459.861,2.3,1.248a4.9,4.9,0,0,1-1.4,2.549,3.368,3.368,0,0,1-1.89.492H96.609q-2.637,0-2.637-2.285V11.9H96.4v2.355q0,.879,1.143.879h2.092a1.847,1.847,0,0,0,1.327-.374A3.936,3.936,0,0,0,101.549,12.832Z" transform="translate(0.51 2.944)" fill="url(#linear-gradient)"/>
    </g>
    <path id="模块科技修饰icon" d="M3208,185H3184.24v-1.7H3208Zm-18.923-2.927h-3.612a.136.136,0,0,1,0-.09v-3.3l1.766-1.092,1.916.922v3.407a.273.273,0,0,1-.07.14Zm17.458,0h-3.682v-7.467l1.425,1,2.257-.1Zm-5.879,0h-3.673v-7.3l2.077-3.087,1.6,1.2Zm-5.639,0h-3.863V179.67l2.007,1,1.886-2.6v4.009Zm-2.007-3.007-5.87-2.967-3.14,1.924v-1.072l3.08-1.934,5.589,2.816,6.1-9.221,6.221,4.791,3.01-.14v.852l-3.351.17-5.639-4.279-6.02,9.02Zm-.662-2.756-1.194-.551v-3.819c0-.421.452-.641.9-.641h2.107c.411,0,.853.22.853.641v.561l-2.689,3.839Zm-6.883-1.7v-5.382c0-.451.371-.611.712-.611h2.157c.4,0,.8.19.8.611v5.382l-2.057-1Zm19.645-2.526-2.247-1.734v-3.137a.822.822,0,0,1,.8-.8h2.157a.772.772,0,0,1,.712.8v4.8Zm-8.127-2.957v-6.535c0-.4.411-.591.833-.591h2.147c.462,0,.693.2.693.591v6.014l-2.208-1.684-1.465,2.165Zm0,0" transform="translate(-3158 -138.334)" fill="#fff"/>
    <path id="形状_7_拷贝_6" data-name="形状 7 拷贝 6" d="M3184,197h190.195l17.107-18H4776" transform="translate(-3158 -138.334)" fill="none" stroke="#fff" stroke-width="1" opacity="0.4"/>
    <g id="矩形_13_拷贝_6" data-name="矩形 13 拷贝 6" transform="translate(26 57)" fill="none" stroke="#fff" stroke-width="1">
      <rect width="7" height="2" stroke="none"/>
      <rect x="0.5" y="0.5" width="6" height="1" fill="none"/>
    </g>
    <path id="矩形_19_拷贝_5" data-name="矩形 19 拷贝 5" d="M3393,183h9l-14,15h-9Z" transform="translate(-3158 -138.334)" fill="#108ee9"/>
    <path id="矩形_19_拷贝_5-2" data-name="矩形 19 拷贝 5" d="M3407,183h9l-14,15h-9Z" transform="translate(-3158 -138.334)" fill="#108ee9"/>
    <path id="矩形_19_拷贝_5-3" data-name="矩形 19 拷贝 5" d="M3421,183h9l-14,15h-9Z" transform="translate(-3158 -138.334)" fill="#108ee9"/>
  </g>
</svg>
