<svg xmlns="http://www.w3.org/2000/svg" xmlns:xlink="http://www.w3.org/1999/xlink" width="1582" height="35.999" viewBox="0 0 1582 35.999">
  <defs>
    <linearGradient id="linear-gradient" x1="0.5" x2="0.5" y2="1" gradientUnits="objectBoundingBox">
      <stop offset="0" stop-color="#fff"/>
      <stop offset="1" stop-color="#108ee9"/>
    </linearGradient>
  </defs>
  <g id="修饰" transform="translate(-26 -23.667)">
    <g id="数据可视化情况_拷贝_3" data-name="数据可视化情况 拷贝 3" transform="translate(69.521 21.832)">
      <path id="Gradient_Overlay" data-name="Gradient Overlay" d="M2.813.088Q4.254,1.811,5.326,3.234L3.146,4.711a26.726,26.726,0,0,0-2.3-3.322ZM17.385,4.342q-.334,1.424-.439,2.162-1.635.035-2.391.035-1.986,0-1.986-1.881V2.883H9.563A5.838,5.838,0,0,1,7.2,7.365h8.9V9.439a15.744,15.744,0,0,1-3.032,4.192,16.13,16.13,0,0,0,4.4,1.31A21.461,21.461,0,0,0,16.1,17.4a16.892,16.892,0,0,1-5.115-2.092,16.111,16.111,0,0,1-5.221,2.215,10.337,10.337,0,0,0-1.371-2.3A18.559,18.559,0,0,0,8.851,13.7a15.782,15.782,0,0,1-2.646-3.155l1.538-1H5.854V7.365h1.2q-.694-.8-1.8-1.863a4.2,4.2,0,0,0,1.9-3.621V.738h7.787V3.551q0,.677.417.756A13.078,13.078,0,0,0,17.385,4.342ZM10.96,12.366a9.236,9.236,0,0,0,2.382-2.821H8.279A11.592,11.592,0,0,0,10.96,12.366ZM5.7,10.74a16.959,16.959,0,0,0,.51,2.689,46.027,46.027,0,0,0-3.621,3.48L1.3,15.029a2.324,2.324,0,0,0,.387-1.371V8.4H-.018V6.012H4.061v6.381Q4.553,11.865,5.7,10.74ZM33.662,1.477V3.287a15.035,15.035,0,0,1-3.92,2.786,33.235,33.235,0,0,0,5.713.677Q34.84,8,34.436,9A30.272,30.272,0,0,1,26.7,7.374a41.9,41.9,0,0,1-6.5,1.679H33.469v8.385H31.043v-.686H22.395v.686H19.969V9.1q-.536.1-1.09.185-.4-.967-.914-2.092a51.132,51.132,0,0,0,5.994-1.134,11.046,11.046,0,0,1-2.065-1.635,18.393,18.393,0,0,1-2.312,1.661,20.125,20.125,0,0,0-1.529-1.547A18.051,18.051,0,0,0,23.063.07l2.514.281q-.413.58-.844,1.125ZM26.736,5.168A13.286,13.286,0,0,0,30.182,3.3H23.669A10.367,10.367,0,0,0,26.736,5.168Zm4.307,5.66H27.861v1.266h3.182Zm-8.648,1.266h3.182V10.828H22.395Zm5.467,2.883h3.182V13.711H27.861Zm-5.467,0h3.182V13.711H22.395ZM36.387,3.6h1.371a13.672,13.672,0,0,0-1.248-2L38.092.615q.545.65,1.477,2.039L37.986,3.6h1.969V.158h2.232V3.6h1.846l-1.459-.949A16.441,16.441,0,0,0,44.051.563l1.652.984A15.984,15.984,0,0,1,44.244,3.6h1.02V5.4H42.188v1.23l.6-.809q1.1.589,2.083,1.16A29.747,29.747,0,0,0,47.355.07L49.764.3q-.352,1.362-.747,2.6h4.4V5.045h-.712A19.626,19.626,0,0,1,50.73,12.7a10.638,10.638,0,0,0,2.76,2.259A14.113,14.113,0,0,0,51.961,17.3,11.12,11.12,0,0,1,49.3,14.8a11.967,11.967,0,0,1-3.366,2.76,15.728,15.728,0,0,0-1.573-1.9L43.734,16.7q-1.055-.606-2.3-1.23A12.818,12.818,0,0,1,36.826,17.3a15.011,15.011,0,0,0-.932-2.162,12.512,12.512,0,0,0,3.234-.738q-1.213-.536-2.566-1.09a19.95,19.95,0,0,0,1.072-1.74H36.193V9.773H38.5a14.653,14.653,0,0,0,.5-1.389l.949.088V6.785a15.292,15.292,0,0,1-3.27,2.549,14.948,14.948,0,0,0-.826-2.109A11.486,11.486,0,0,0,39.015,5.4H36.387ZM48.076,5.546a17.088,17.088,0,0,0,1.23,4.9,15.419,15.419,0,0,0,1.248-5.4H48.27Q48.182,5.3,48.076,5.546ZM42.188,8.877H41.3q-.2.431-.448.9h4.1v1.635a10.13,10.13,0,0,1-1.714,2.54l1.749.694-.352.571a10.938,10.938,0,0,0,3.313-2.619A16.857,16.857,0,0,1,46.626,8.64Q46.318,9.193,46,9.7a17.222,17.222,0,0,0-.94-1.45l-.519.782q-1.09-.738-2.355-1.494Zm-2.812,3.6,1.828.686a5.91,5.91,0,0,0,1.3-1.6h-2.61ZM71.42,9.721H67.412V11.2h2.953v6.311H68.291v-.879h-3.92v.879H62.3V11.2h2.9V9.721H62.121a15.184,15.184,0,0,1-2.25,7.646,16.629,16.629,0,0,0-1.582-1.793,16.848,16.848,0,0,0,1.758-8.35V.809H70.682v5.5h-3.27V7.875H71.42ZM54.193,3.445h1.67V.334H57.99V3.445H59.5V5.7H57.99V8.156q.756-.158,1.6-.369-.088,1.406-.07,2.285-.773.193-1.529.387v4.816q0,1.951-1.6,2a13.313,13.313,0,0,1-1.793.053q-.176-1.037-.51-2.285l1.178.035q.6.018.6-.844V11q-.844.229-1.687.439l-.193-2.426q.791-.158,1.881-.387V5.7h-1.67ZM68.52,4.465V2.654H62.191V4.465Zm-.229,8.578h-3.92v1.74h3.92ZM65.2,7.875V6.311H62.191V7.875ZM89.4,4.166H77.115v-2h4.711Q81.51,1.4,81.105.545L83.725.07q.431.809.967,2.092H89.4ZM75.023.193l2.32.615q-.659,2.109-1.354,3.946V17.473H73.758V9.712q-.624,1.143-1.266,2.1-.193-1.406-.562-3.3A42.187,42.187,0,0,0,75.023.193Zm13.359,6.82H77.836V5.133H88.383Zm0,2.777H77.836V7.91H88.383ZM77.8,17.473v-6.75H88.383v6.75H85.975v-.914H80.209v.914ZM85.975,12.8H80.209v1.688h5.766Zm5.73-11.268h5.133q.211-.694.387-1.477l3.006.316-.536,1.16h6.091v9.686H99.7l1.529,1.881-1.951,1.371q-.633-.984-1.863-2.549l1.081-.7H91.705ZM103.482,3.34H94.008v.984h9.475ZM94.008,6.855h9.475V5.871H94.008ZM103.482,9.4v-1H94.008v1Zm1.9,1.969q1.441,2.426,2.092,3.674l-2.092,1.107a31.442,31.442,0,0,0-1.986-3.832Zm-13.852.369,2.2.773q-1.143,2.865-1.705,4.1l-2.057-.949A23.77,23.77,0,0,0,91.529,11.742Zm10.248,1.143q1.459.861,2.3,1.248a4.9,4.9,0,0,1-1.4,2.549,3.368,3.368,0,0,1-1.89.492H96.838q-2.637,0-2.637-2.285V11.953h2.426v2.355q0,.879,1.143.879h2.092a1.847,1.847,0,0,0,1.327-.374A3.936,3.936,0,0,0,101.777,12.885Z" transform="translate(0.281 3.892)" fill="url(#linear-gradient)"/>
    </g>
    <path id="模块科技修饰icon" d="M3208,185H3184.24v-1.7H3208Zm-18.923-2.927h-3.612a.136.136,0,0,1,0-.09v-3.3l1.766-1.092,1.916.922v3.407a.273.273,0,0,1-.07.14Zm17.458,0h-3.682v-7.467l1.425,1,2.257-.1Zm-5.879,0h-3.673v-7.3l2.077-3.087,1.6,1.2Zm-5.639,0h-3.863V179.67l2.007,1,1.886-2.6v4.009Zm-2.007-3.007-5.87-2.967-3.14,1.924v-1.072l3.08-1.934,5.589,2.816,6.1-9.221,6.221,4.791,3.01-.14v.852l-3.351.17-5.639-4.279-6.02,9.02Zm-.662-2.756-1.194-.551v-3.819c0-.421.452-.641.9-.641h2.107c.411,0,.853.22.853.641v.561l-2.689,3.839Zm-6.883-1.7v-5.382c0-.451.371-.611.712-.611h2.157c.4,0,.8.19.8.611v5.382l-2.057-1Zm19.645-2.526-2.247-1.734v-3.137a.822.822,0,0,1,.8-.8h2.157a.772.772,0,0,1,.712.8v4.8Zm-8.127-2.957v-6.535c0-.4.411-.591.833-.591h2.147c.462,0,.693.2.693.591v6.014l-2.208-1.684-1.465,2.165Zm0,0" transform="translate(-3158 -138.334)" fill="#fff"/>
    <path id="形状_7_拷贝_6" data-name="形状 7 拷贝 6" d="M3184,197h189l17-18H4766" transform="translate(-3158 -138.334)" fill="none" stroke="#fff" stroke-width="1" opacity="0.4"/>
    <g id="矩形_13_拷贝_6" data-name="矩形 13 拷贝 6" transform="translate(26 57)" fill="none" stroke="#fff" stroke-width="1">
      <rect width="7" height="2" stroke="none"/>
      <rect x="0.5" y="0.5" width="6" height="1" fill="none"/>
    </g>
    <path id="矩形_19_拷贝_5" data-name="矩形 19 拷贝 5" d="M3393,183h9l-14,15h-9Z" transform="translate(-3158 -138.334)" fill="#108ee9"/>
    <path id="矩形_19_拷贝_5-2" data-name="矩形 19 拷贝 5" d="M3407,183h9l-14,15h-9Z" transform="translate(-3158 -138.334)" fill="#108ee9"/>
    <path id="矩形_19_拷贝_5-3" data-name="矩形 19 拷贝 5" d="M3421,183h9l-14,15h-9Z" transform="translate(-3158 -138.334)" fill="#108ee9"/>
  </g>
</svg>
