<svg xmlns="http://www.w3.org/2000/svg" xmlns:xlink="http://www.w3.org/1999/xlink" width="1592" height="35.999" viewBox="0 0 1592 35.999">
  <defs>
    <linearGradient id="linear-gradient" x1="0.5" x2="0.5" y2="1" gradientUnits="objectBoundingBox">
      <stop offset="0" stop-color="#fff"/>
      <stop offset="1" stop-color="#108ee9"/>
    </linearGradient>
  </defs>
  <g id="装饰" transform="translate(-26 -23.667)">
    <g id="数据可视化情况_拷贝_3" data-name="数据可视化情况 拷贝 3" transform="translate(76.521 20.832)">
      <path id="Gradient_Overlay" data-name="Gradient Overlay" d="M-9.176,3.2h2.092V.088h2.268V3.2h1.652V5.484H-4.816v2.61l1.494-.343-.044,1.2,1.1-1.45,1.16.782a22.131,22.131,0,0,0,.2-2.8H-2.619V3.2H-.87Q-.861,1.828-.861.088h2.32q0,1.45-.018,3.111H5.467q-.035,4.939.04,7.849a26.4,26.4,0,0,0,.158,3.1.324.324,0,0,0,.224.215q.255.018.36-.6t.22-2.338A14.249,14.249,0,0,0,8.3,12.48a11.76,11.76,0,0,1-.8,3.832A1.7,1.7,0,0,1,5.959,17.42a2.348,2.348,0,0,1-1.881-1.1q-.826-1.1-.914-4.724L1.986,13.359.422,12.173a14.249,14.249,0,0,1-3.2,5.37q-.949-1-1.969-1.934a10.244,10.244,0,0,0,3.12-4.939q-.914-.65-1.758-1.2,0,.3-.009.606l-1.424.343v4.649a2.751,2.751,0,0,1-.461,1.573q-.461.686-3.195.712-.229-1.09-.6-2.391Q-8.5,15-8.06,15a1.24,1.24,0,0,0,.8-.171.949.949,0,0,0,.18-.681V10.986l-1.9.492-.246-2.531q1.063-.176,2.145-.387V5.484H-9.176Zm12.34,8.095q-.088-2.769-.053-5.81H1.424a24.241,24.241,0,0,1-.378,4.3Q2.171,10.564,3.164,11.294Zm10-11.276q1.125.773,2.109,1.512a36.779,36.779,0,0,1-4.9,4.588A22.927,22.927,0,0,0,8.807,4.043,24.834,24.834,0,0,0,13.166.018ZM16.33,1.266h9.141V3.551H16.33ZM13.447,4.588,15.5,5.906Q14.73,7.04,13.816,8.13v9.114H11.373V10.767q-.809.782-1.687,1.538-.352-.984-.967-2.443A27.7,27.7,0,0,0,13.447,4.588Zm2.3,1.705H26.244V8.578H23.5v5.66a3.152,3.152,0,0,1-.655,2.149,2.582,2.582,0,0,1-1.854.822q-1.2.079-3.555.105-.246-1.16-.65-2.461,1.828.123,2.883.123,1.283,0,1.283-1.354V8.578h-5.2ZM34.172.158h2.566a35.959,35.959,0,0,1-.167,3.691q1.318,8.209,7.638,10.793-1.389,1.635-2.021,2.549a13.515,13.515,0,0,1-6.68-8.174,16.141,16.141,0,0,1-7,8.35,20.627,20.627,0,0,0-1.775-2.514A14.416,14.416,0,0,0,32.445,9.4Q34.207,6.205,34.172.158ZM48.393.246l2.461.721a34.481,34.481,0,0,1-1.406,3.674V17.332H47.057v-8.3q-.712,1.1-1.512,2.145-.246-1.072-.809-3.164A27.315,27.315,0,0,0,48.393.246ZM50.783,14.4H55.02V10.037H50.432V7.787H55.02V3.92l-3.375.193q-.193-1-.545-2.373,5.889-.264,9.949-.721.053.316.527,2.373-1.811.185-3.92.352V7.787h4.553v2.25H57.656V14.4h3.867v2.25H50.783ZM78.732,1.564v1.9a17.693,17.693,0,0,1-4.061,2.83,28.265,28.265,0,0,0,5.537.615q-.545,1.3-.949,2.338a30.578,30.578,0,0,1-7.726-1.617,41.31,41.31,0,0,1-7.813,1.846q-.369-.932-.949-2.2A39.788,39.788,0,0,0,68.713,6.3a12.52,12.52,0,0,1-2.188-1.652,21.286,21.286,0,0,1-2.188,1.556q-.6-.809-1.424-1.775A15.237,15.237,0,0,0,67.992.07h2.654q-.5.773-1.072,1.494ZM71.657,5.37a16.519,16.519,0,0,0,3.56-1.854H68.37A13.953,13.953,0,0,0,71.657,5.37ZM69.135,8.578h2.514q-.088.844-.237,1.652h7.427l-.3,4.008a3.088,3.088,0,0,1-.589,1.652,2.927,2.927,0,0,1-1.371.962,12.011,12.011,0,0,1-3.41.312q-.879,0-1.854-.044a17.372,17.372,0,0,0-.562-2.373q1.942.158,3.393.158a2.5,2.5,0,0,0,1.178-.229.982.982,0,0,0,.523-.642,10.984,10.984,0,0,0,.163-1.679H70.875q-1.345,3.709-6.469,5.115-.686-.932-1.652-2.021,4.043-.967,5.361-3.094H63.369V10.23h5.493Q69.029,9.457,69.135,8.578ZM98.174,4.113H85.887v-2H90.6q-.316-.765-.721-1.617L92.5.018q.431.809.967,2.092h4.711ZM83.795.141l2.32.615Q85.456,2.865,84.762,4.7V17.42H82.529V9.659q-.624,1.143-1.266,2.1-.193-1.406-.562-3.3A42.187,42.187,0,0,0,83.795.141Zm13.359,6.82H86.607V5.08H97.154Zm0,2.777H86.607V7.857H97.154ZM86.572,17.42V10.67H97.154v6.75H94.746v-.914H88.98v.914Zm8.174-4.676H88.98v1.688h5.766Zm5.73-11.268h5.133Q105.82.782,106,0L109,.316l-.536,1.16h6.091v9.686h-6.082L110,13.043l-1.951,1.371q-.633-.984-1.863-2.549l1.081-.7h-6.794Zm11.777,1.811h-9.475v.984h9.475ZM102.779,6.8h9.475V5.818h-9.475Zm9.475,2.549v-1h-9.475v1Zm1.9,1.969q1.441,2.426,2.092,3.674L114.152,16.1a31.442,31.442,0,0,0-1.986-3.832Zm-13.852.369,2.2.773q-1.143,2.865-1.705,4.1l-2.057-.949A23.77,23.77,0,0,0,100.3,11.689Zm10.248,1.143q1.459.861,2.3,1.248a4.9,4.9,0,0,1-1.4,2.549,3.368,3.368,0,0,1-1.89.492h-3.955q-2.637,0-2.637-2.285V11.9H105.4v2.355q0,.879,1.143.879h2.092a1.847,1.847,0,0,0,1.327-.374A3.936,3.936,0,0,0,110.549,12.832Z" transform="translate(0.51 2.944)" fill="url(#linear-gradient)"/>
    </g>
    <path id="模块科技修饰icon" d="M3208,185H3184.24v-1.7H3208Zm-18.923-2.927h-3.612a.136.136,0,0,1,0-.09v-3.3l1.766-1.092,1.916.922v3.407a.273.273,0,0,1-.07.14Zm17.458,0h-3.682v-7.467l1.425,1,2.257-.1Zm-5.879,0h-3.673v-7.3l2.077-3.087,1.6,1.2Zm-5.639,0h-3.863V179.67l2.007,1,1.886-2.6v4.009Zm-2.007-3.007-5.87-2.967-3.14,1.924v-1.072l3.08-1.934,5.589,2.816,6.1-9.221,6.221,4.791,3.01-.14v.852l-3.351.17-5.639-4.279-6.02,9.02Zm-.662-2.756-1.194-.551v-3.819c0-.421.452-.641.9-.641h2.107c.411,0,.853.22.853.641v.561l-2.689,3.839Zm-6.883-1.7v-5.382c0-.451.371-.611.712-.611h2.157c.4,0,.8.19.8.611v5.382l-2.057-1Zm19.645-2.526-2.247-1.734v-3.137a.822.822,0,0,1,.8-.8h2.157a.772.772,0,0,1,.712.8v4.8Zm-8.127-2.957v-6.535c0-.4.411-.591.833-.591h2.147c.462,0,.693.2.693.591v6.014l-2.208-1.684-1.465,2.165Zm0,0" transform="translate(-3158 -138.334)" fill="#fff"/>
    <path id="形状_7_拷贝_6" data-name="形状 7 拷贝 6" d="M3184,197h190.195l17.107-18H4776" transform="translate(-3158 -138.334)" fill="none" stroke="#fff" stroke-width="1" opacity="0.4"/>
    <g id="矩形_13_拷贝_6" data-name="矩形 13 拷贝 6" transform="translate(26 57)" fill="none" stroke="#fff" stroke-width="1">
      <rect width="7" height="2" stroke="none"/>
      <rect x="0.5" y="0.5" width="6" height="1" fill="none"/>
    </g>
    <path id="矩形_19_拷贝_5" data-name="矩形 19 拷贝 5" d="M3393,183h9l-14,15h-9Z" transform="translate(-3158 -138.334)" fill="#108ee9"/>
    <path id="矩形_19_拷贝_5-2" data-name="矩形 19 拷贝 5" d="M3407,183h9l-14,15h-9Z" transform="translate(-3158 -138.334)" fill="#108ee9"/>
    <path id="矩形_19_拷贝_5-3" data-name="矩形 19 拷贝 5" d="M3421,183h9l-14,15h-9Z" transform="translate(-3158 -138.334)" fill="#108ee9"/>
  </g>
</svg>
